<?xml version="1.0" standalone="no"?><!DOCTYPE svg PUBLIC "-//W3C//DTD SVG 1.1//EN" "http://www.w3.org/Graphics/SVG/1.1/DTD/svg11.dtd"><svg t="1572425495273" class="icon" viewBox="0 0 1024 1024" version="1.1" xmlns="http://www.w3.org/2000/svg" p-id="2184" xmlns:xlink="http://www.w3.org/1999/xlink" width="32" height="32"><defs><style type="text/css"></style></defs><path d="M937.072 917.584h-830.55V87.022c-0.106-11.764-9.623-21.272-21.388-21.366-11.632-0.174-21.202 9.115-21.376 20.747a20.81 20.81 0 0 0 0 0.619V938.96c0.082 11.777 9.6 21.308 21.376 21.409h851.94c11.802 0.265 21.585-9.09 21.849-20.892 0.265-11.803-9.09-21.586-20.892-21.85a21.394 21.394 0 0 0-0.959 0v-0.043zM346.53 329.758H168.266v546.734H346.53V329.758z m253.322-212.995H421.643v759.73H599.94l-0.087-759.73zM853.39 359.531H675.148v516.756h178.284l-0.042-516.756z" p-id="2185" fill="#606060"></path></svg>