<?xml version="1.0" standalone="no"?><!DOCTYPE svg PUBLIC "-//W3C//DTD SVG 1.1//EN" "http://www.w3.org/Graphics/SVG/1.1/DTD/svg11.dtd"><svg t="1572426590164" class="icon" viewBox="0 0 1024 1024" version="1.1" xmlns="http://www.w3.org/2000/svg" p-id="2293" xmlns:xlink="http://www.w3.org/1999/xlink" width="32" height="32"><defs><style type="text/css"></style></defs><path d="M942.4 650.84L836.964 393.752c-10.667-24.799-35.147-33.924-54.678-20.38-6.778 4.7-12.348 11.774-16.05 20.38L647.97 682.137 495.804 204.93c-5.754-18.03-19.755-30.127-35.631-30.738-15.877-0.612-30.465 10.42-37.13 27.945L275.498 592.024h-159.21c-21.818 0-39.519 21.61-39.519 48.236 0 26.627 17.702 48.225 39.52 48.225h184.527c15.191 0.15 29.115-10.734 35.852-28.025l119.165-314.784 150.763 472.776c5.68 17.764 19.41 29.806 35.024 30.685h1.844c14.765 0.162 28.384-10.088 35.36-26.613l122.791-299.402 70.068 170.899c9.756 23.82 33.536 33.466 53.038 21.569 19.503-11.896 27.447-40.918 17.68-64.75z" p-id="2294" fill="#606060"></path></svg>